<svg xmlns="http://www.w3.org/2000/svg" viewBox="0 0 318.51 281.4"><g id="Слой_2" data-name="Слой 2"><path d="M91.89 3.36l18.76 34.5L114.17 26a6.41 6.41 0 018-4.34l1.65.49a6.4 6.4 0 014.33 8L120.51 56l13.67 25.13 9.41-31.85a6.42 6.42 0 018-4.34l1.65.48a6.43 6.43 0 014.33 8L144 99.16l14.66 27 15.69-25.63c-.07-.2-.15-.39-.2-.59l-11.61-48.18a6.42 6.42 0 014.74-7.76l1.67-.4a6.43 6.43 0 017.74 4.74L185 83l15-24.47a5.84 5.84 0 01-.2-.59l-6.72-27.89a6.42 6.42 0 014.74-7.75l1.67-.4a6.41 6.41 0 017.74 4.74l3.47 14.41L232.1 6.1a6.42 6.42 0 018.83-2.1l1.46.89a6.42 6.42 0 012.13 8.83L224 47.19l12-2.91a6.44 6.44 0 017.82 4.72l.4 1.67a6.42 6.42 0 01-4.74 7.75l-26.21 6.3-14.93 24.4 32.3-7.77a6.43 6.43 0 017.74 4.74l.4 1.66a6.42 6.42 0 01-4.78 7.77l-46.41 11.18-16 26.18 30.05.77a4.6 4.6 0 01.41-.47l35.9-34.1a6.41 6.41 0 019.07.23l1.18 1.24a6.43 6.43 0 01-.23 9.08l-25.84 24.55 28.68.73c.14-.16.26-.33.41-.47L272 114.68a6.42 6.42 0 019.08.23l1.18 1.24a6.43 6.43 0 01-.23 9.08l-10.75 10.21 41 1.05a6.41 6.41 0 016.25 6.58v1.72a6.42 6.42 0 01-6.58 6.25l-39.26-1 8.54 9a6.43 6.43 0 01-.23 9.08l-1.24 1.18a6.43 6.43 0 01-9.08-.23L252 149.5l-28.59-.73 22.88 24.09a6.43 6.43 0 01-.23 9.08l-1.25 1.17a6.41 6.41 0 01-9.07-.23l-32.91-34.64-30.69-.78 14.36 26.4a6 6 0 01.61.12l47.49 14a6.43 6.43 0 014.34 8l-.49 1.64a6.43 6.43 0 01-8 4.34l-34.18-10.11L210 217.08c.2 0 .4.06.61.12l27.52 8.13a6.42 6.42 0 014.33 8L242 235a6.42 6.42 0 01-8 4.34l-14.21-4.2 19.57 36a6.42 6.42 0 01-2.57 8.71l-1.51.82a6.42 6.42 0 01-8.71-2.57l-18.75-34.5-3.52 11.88a6.41 6.41 0 01-8 4.34l-1.64-.48a6.43 6.43 0 01-4.34-8l7.68-25.88-13.67-25.13-9.42 31.86a6.41 6.41 0 01-8 4.33l-1.64-.48a6.43 6.43 0 01-4.34-8l13.55-45.82-14.66-27-15.69 25.63c.07.2.15.39.2.59L156 229.65a6.42 6.42 0 01-4.74 7.74l-1.67.4a6.41 6.41 0 01-7.74-4.74l-8.34-34.65-15 24.47c.06.2.15.38.2.59l6.72 27.89a6.43 6.43 0 01-4.74 7.75l-1.67.4a6.41 6.41 0 01-7.74-4.74l-3.47-14.41-21.4 35a6.41 6.41 0 01-8.82 2.12l-1.47-.89a6.43 6.43 0 01-2.12-8.87l20.5-33.5-12.06 2.91a6.43 6.43 0 01-7.74-4.75l-.4-1.66A6.42 6.42 0 0179 223l26.2-6.3 14.94-24.4-32.27 7.7a6.43 6.43 0 01-7.75-4.74l-.4-1.66a6.43 6.43 0 014.74-7.75l46.45-11.18 16-26.18-30.06-.77a4.51 4.51 0 01-.4.47l-35.9 34.11a6.43 6.43 0 01-9.08-.23l-1.17-1.25a6.43 6.43 0 01.23-9.08l25.87-24.51-28.69-.74a4.51 4.51 0 01-.4.47l-20.8 19.76a6.42 6.42 0 01-9.08-.23l-1.18-1.24a6.42 6.42 0 01.23-9.08L47.22 146l-41-1.05A6.43 6.43 0 010 138.33l.05-1.71a6.42 6.42 0 016.58-6.26l39.26 1-8.54-9a6.43 6.43 0 01.23-9.08l1.24-1.18a6.42 6.42 0 019.08.24l18.57 19.56 28.59.73-22.88-24.08a6.45 6.45 0 01.23-9.09l1.24-1.17a6.42 6.42 0 019.08.23l32.91 34.64 30.68.79L132 107.54c-.2 0-.4-.06-.61-.12l-47.48-14a6.41 6.41 0 01-4.34-8l.43-1.66a6.42 6.42 0 018-4.33l34.17 10.1-13.7-25.21c-.2 0-.41 0-.61-.11l-27.52-8.14a6.42 6.42 0 01-4.33-8l.48-1.64a6.43 6.43 0 018-4.34l14.21 4.2-19.57-36a6.42 6.42 0 012.55-8.69l1.51-.82a6.41 6.41 0 018.7 2.58" fill="#ce3a2d" id="Слой_1-2" data-name="Слой 1"/></g></svg>