<svg xmlns="http://www.w3.org/2000/svg" viewBox="0 0 1946.38 328.67"><g id="Слой_2" data-name="Слой 2"><path d="M33.22.07C89.6 5.36 136.66 54.89 138.93 117.13A89.72 89.72 0 01217 115.5c9-28.81 34.59-48.76 63.43-50.4 31.7-1.8 61.6 18.79 71.56 50.4a65.86 65.86 0 0153.67 1.63A96.07 96.07 0 01539 47.22c30.31-23 66.28-36.48 103.68-35.66 22.25.49 39.4 5.09 53.08 11.31 30.69 14 54 39.75 67.68 71.5 15-9.64 32.78-14 50.42-11.38 25.47 3.72 46.33 21.07 56.92 43.89a72.26 72.26 0 01120.36 17.89 76.24 76.24 0 01107.36-29.27 51.29 51.29 0 0155.29-24.39 87.31 87.31 0 01110.6-37.39c28.28-25.61 66.55-37.81 104.48-32 43.18 6.64 79.67 35.68 97.19 75.88 17.35-10.75 38.68-14.46 58.55-8.13 26 8.28 45.83 32.82 48.79 63.41a55.27 55.27 0 0181.32-3.26c10.15-30.95 37.35-52.54 68.3-55.27 34.62-3.07 68.29 17.93 81.32 52a78.47 78.47 0 0130.9-21.13c-16 6 20-14.09 55.85-14.64 17.62-.26 34.81 4.72 51 14a565.11 565.11 0 014.13 82.59c-2.35 101.36-5 121.46-5 121.46H2.91C2.91 203.94-13.89-4.35 33.22.07z" fill="#fff" id="Слой_1-2" data-name="Слой 1"/></g></svg>