<svg xmlns="http://www.w3.org/2000/svg" viewBox="0 0 1985.77 300.89"><g id="Слой_2" data-name="Слой 2"><path d="M1903.5 5.65c-33.54-9.16-66.91-7.24-94.62 6.14a139.29 139.29 0 00-67.19 70.61c-28.18-11.22-59.53-12.05-87.91-1-37.33 14.48-64.08 47.21-73.43 85.84a61.78 61.78 0 00-62.06 0 87.07 87.07 0 00-165.48-2.07 89.82 89.82 0 00-79.64-2.07 12.61 12.61 0 00-13.44-9.31c-5.29-58.28-45.17-106.9-99.29-123.07-49.76-14.87-104.7-.29-141.7 38.26A130.27 130.27 0 00949.45 101a113.49 113.49 0 00-107.57 66.19 87.52 87.52 0 00-93.08 27.92 95.22 95.22 0 00-180 4.14 66.67 66.67 0 00-102.39 9.31 87.81 87.81 0 00-112.73-51.71 18.41 18.41 0 00-22.68-4.12C327.27 89.05 281.24 36 220.3 23.45 156.38 10.31 90.42 44.72 64.12 106.19A65.82 65.82 0 000 77.23v223.66h1985.77V63.78a149.12 149.12 0 00-82.27-58.13z" fill="#f6f6f6" id="Слой_1-2" data-name="Слой 1"/></g></svg>