<svg xmlns="http://www.w3.org/2000/svg" viewBox="0 0 1920.07 168.14"><g id="Слой_2" data-name="Слой 2"><path d="M1920.07 0v140c-1.94-.39-3.92-.63-5.81-1.19-77.08-22.81-155.36-40.47-234.38-55-98.28-18-197.27-30.75-296.75-39.75-15.25-1.38-30.52-2.58-45.38-3.83-1.42 1.09-2.37 1.76-3.26 2.5-40 33.13-84.58 58.58-132.55 78.19-64 26.14-130.62 40.38-199.43 45.22s-137.22 1-204.58-15.16C726.87 134 661.41 105 603.49 59.89c-6.57-5.11-12.89-10.53-19.56-16-98.39 8.33-196.49 20.08-294 36.24S95.46 116.73 0 143.84V0z" fill="#fff" id="Слой_1-2" data-name="Слой 1"/></g></svg>