<svg xmlns="http://www.w3.org/2000/svg" viewBox="0 0 1935.25 394.08"><g id="Слой_2" data-name="Слой 2"><g id="Слой_1-2" data-name="Слой 1"><g id="Слой_2-2" data-name="Слой 2"><path d="M1926.17 124.56a96 96 0 00-76.92-19.77 87.7 87.7 0 00-113.22-42c-19.79-42.11-62.46-66.31-104.51-62.37-50.31 4.72-92.32 48.88-94.35 104.37a80.11 80.11 0 00-69.67-1.45c-8-25.69-30.87-43.47-56.61-44.94-28.29-1.61-55 16.76-63.87 44.94a58.85 58.85 0 00-47.9 1.45c-5.26-20.29-18.47-39-38.5-47.46-28.65-12.09-66.27-.71-88 31-19.13-22.26-45.67-37-75-40-40.11-4-79.2 14.59-104 47a71 71 0 00-35.44-20 64.81 64.81 0 00-23.39-1c-22.73 3.32-41.35 18.79-50.81 39.14a64.5 64.5 0 00-107.41 15.94 68.07 68.07 0 00-92-28.25c-1.28.68-2.54 1.4-3.77 2.16a45.77 45.77 0 00-49.35-21.75 78 78 0 00-98.71-33.34c-25.24-22.83-59.39-33.71-93.25-28.51-38.54 5.92-71.1 31.81-86.74 67.65-15.49-9.58-34.52-12.89-52.25-7.25-23.23 7.39-40.91 29.27-43.55 56.54a49.33 49.33 0 00-69.56-5.66c-1 .89-2.07 1.83-3 2.81-9.07-27.59-33.34-46.85-61-49.29-30.89-2.73-60.94 16-72.58 46.39A70 70 0 0023.22 112 69 69 0 000 107.69v286.39c117.85-.22 601.57 0 1935.25 0V110.45a20.3 20.3 0 00-9.08 14.11z" fill="#fbfbfb" id="Слой_1-2-2" data-name="Слой 1-2"/></g></g></g></svg>